# xmcd
#
# Track frame offsets: 
#        150
#        32700
#        59325
#        77175
#        100225
#        127400
#        155250
#        171950
#        194875
#        216500
#        236950
#        252375
#        279475
#        295575
#        325475
#
# Disc length: 4583 seconds
#
# Revision: 12
# Processed by: cddbd v1.5.2PL0 Copyright (c) Steve Scherf et al.
# Submitted via: ExactAudioCopy v0.99pb5
#
DISCID=f211e50f
DTITLE=Various Artist - Dance Now! 7 CD2
DYEAR=1994
DGENRE=Dance
TTITLE0=Erasure - Always (Cappella Club Remix)
TTITLE1=Urban Cookie Collective - High On A Happy Vibe (Development Co
TTITLE1=rporation Mix)
TTITLE2=M.C. Sar and The Real McCoy - Automatic Lover (Call For Love) (A
TTITLE2=irplay Remix)
TTITLE3=Magic Affair - Omen III (Cypher Remix)
TTITLE4=Masterboy - I Got To Give It (On and On Mix)
TTITLE5=Pharao - I Show You Secrets (Mystery of Music Mix)
TTITLE6=Joyy feat. Boom - Celebration (Media Mix)
TTITLE7=Jon Joy - We Need Luv (Sven's Cuba Libre Remix)
TTITLE8=Fun Factory - Close To You (Close To Ragga Remix)
TTITLE9=CO.RO - Temptation (Radio Version)
TTITLE10=Zulu - Pain In My Heart (Radio-Mix)
TTITLE11=Peter Schilling - Major Tom (Trance Club Mix '94)
TTITLE12=Prohibition - Prohibition Groove (Radio Edit)
TTITLE13=Nightwalkers - Push The Feeling On (Unique Mix)
TTITLE14=Mr. Magic - The Most Beautiful Girl In The World
EXTD=YEAR: 1994
EXTT0=
EXTT1=
EXTT2=
EXTT3=
EXTT4=
EXTT5=
EXTT6=
EXTT7=
EXTT8=
EXTT9=
EXTT10=
EXTT11=
EXTT12=
EXTT13=
EXTT14=
PLAYORDER=
